Playfair Display-Italic.ufo
<glyph name="g" format="1">
  <advance width="449"/>
  <unicode hex="0067"/>
  <outline>
    <contour>
      <point x="216" y="225" type="line"/>
      <point x="68" y="157"/>
      <point x="36" y="118"/>
      <point x="36" y="78" type="curve" smooth="yes"/>
      <point x="36" y="44"/>
      <point x="58" y="26"/>
      <point x="90" y="18" type="curve" smooth="yes"/>
      <point x="243" y="-21" type="line" smooth="yes"/>
      <point x="272" y="-28"/>
      <point x="284" y="-31"/>
      <point x="284" y="-51" type="curve" smooth="yes"/>
      <point x="284" y="-118"/>
      <point x="174" y="-178"/>
      <point x="85" y="-178" type="curve" smooth="yes"/>
      <point x="30" y="-178"/>
      <point x="-12" y="-156"/>
      <point x="-12" y="-103" type="curve" smooth="yes"/>
      <point x="-12" y="-71"/>
      <point x="3" y="-38"/>
      <point x="53" y="-12" type="curve"/>
      <point x="46" y="3" type="line"/>
      <point x="-49" y="-25"/>
      <point x="-96" y="-77"/>
      <point x="-96" y="-120" type="curve" smooth="yes"/>
      <point x="-96" y="-165"/>
      <point x="-43" y="-195"/>
      <point x="62" y="-195" type="curve" smooth="yes"/>
      <point x="269" y="-195"/>
      <point x="352" y="-78"/>
      <point x="352" y="-11" type="curve" smooth="yes"/>
      <point x="352" y="41"/>
      <point x="303" y="59"/>
      <point x="239" y="76" type="curve" smooth="yes"/>
      <point x="166" y="95" type="line" smooth="yes"/>
      <point x="123" y="106"/>
      <point x="106" y="116"/>
      <point x="106" y="130" type="curve" smooth="yes"/>
      <point x="106" y="156"/>
      <point x="169" y="183"/>
      <point x="241" y="224" type="curve"/>
    </contour>
    <contour>
      <point x="267" y="510" type="curve" smooth="yes"/>
      <point x="305" y="510"/>
      <point x="314" y="481"/>
      <point x="314" y="436" type="curve" smooth="yes"/>
      <point x="314" y="375"/>
      <point x="295" y="231"/>
      <point x="194" y="231" type="curve" smooth="yes"/>
      <point x="162" y="231"/>
      <point x="141" y="248"/>
      <point x="141" y="291" type="curve" smooth="yes"/>
      <point x="141" y="330"/>
      <point x="160" y="510"/>
    </contour>
    <contour>
      <point x="271" y="528" type="curve" smooth="yes"/>
      <point x="109" y="528"/>
      <point x="54" y="395"/>
      <point x="54" y="322" type="curve" smooth="yes"/>
      <point x="54" y="247"/>
      <point x="110" y="213"/>
      <point x="184" y="213" type="curve" smooth="yes"/>
      <point x="318" y="213"/>
      <point x="403" y="319"/>
      <point x="403" y="416" type="curve" smooth="yes"/>
      <point x="403" y="494"/>
      <point x="350" y="528"/>
    </contour>
    <contour>
      <point x="342" y="476" type="line"/>
      <point x="362" y="513"/>
      <point x="379" y="534"/>
      <point x="435" y="555" type="curve"/>
      <point x="422" y="558" type="line"/>
      <point x="389" y="485"/>
      <point x="425" y="455"/>
      <point x="457" y="455" type="curve" smooth="yes"/>
      <point x="478" y="455"/>
      <point x="501" y="471"/>
      <point x="501" y="509" type="curve" smooth="yes"/>
      <point x="501" y="550"/>
      <point x="477" y="569"/>
      <point x="443" y="569" type="curve" smooth="yes"/>
      <point x="394" y="569"/>
      <point x="343" y="528"/>
      <point x="324" y="483" type="curve"/>
    </contour>
    <contour>
      <point x="107" y="-195" type="move" name="bottom"/>
    </contour>
    <contour>
      <point x="286" y="514" type="move" name="top"/>
    </contour>
  </outline>
</glyph>
<glyph name="ij" format="1">
  <advance width="625"/>
  <unicode hex="0133"/>
  <outline>
    <contour>
      <point x="196" y="-188" type="line"/>
      <point x="254" y="-188"/>
      <point x="310" y="-163"/>
      <point x="353" y="-127" type="curve" smooth="yes"/>
      <point x="419" y="-72"/>
      <point x="461" y="15"/>
      <point x="486" y="115" type="curve" smooth="yes"/>
      <point x="563" y="388" type="line" smooth="yes"/>
      <point x="584" y="463"/>
      <point x="578" y="528"/>
      <point x="491" y="528" type="curve" smooth="yes"/>
      <point x="434" y="528"/>
      <point x="376" y="506"/>
      <point x="342" y="429" type="curve" smooth="yes"/>
      <point x="297" y="327"/>
      <point x="299" y="190"/>
      <point x="256" y="91" type="curve" smooth="yes"/>
      <point x="232" y="35"/>
      <point x="199" y="23"/>
      <point x="168" y="23" type="curve" smooth="yes"/>
      <point x="128" y="23"/>
      <point x="112" y="49"/>
      <point x="125" y="85" type="curve" smooth="yes"/>
      <point x="232" y="388" type="line" smooth="yes"/>
      <point x="257" y="459"/>
      <point x="263" y="528"/>
      <point x="182" y="528" type="curve" smooth="yes"/>
      <point x="141" y="528"/>
      <point x="88" y="509"/>
      <point x="58" y="425" type="curve" smooth="yes"/>
      <point x="32" y="352" type="line"/>
      <point x="51" y="352" type="line"/>
      <point x="65" y="389" type="line" smooth="yes"/>
      <point x="91" y="458"/>
      <point x="113" y="491"/>
      <point x="144" y="491" type="curve" smooth="yes"/>
      <point x="168" y="491"/>
      <point x="174" y="474"/>
      <point x="158" y="429" type="curve" smooth="yes"/>
      <point x="51" y="126" type="line" smooth="yes"/>
      <point x="24" y="48"/>
      <point x="47" y="-14"/>
      <point x="131" y="-14" type="curve" smooth="yes"/>
      <point x="180" y="-14"/>
      <point x="238" y="2"/>
      <point x="270" y="73" type="curve" smooth="yes"/>
      <point x="318" y="179"/>
      <point x="318" y="313"/>
      <point x="353" y="403" type="curve" smooth="yes"/>
      <point x="382" y="476"/>
      <point x="414" y="491"/>
      <point x="452" y="491" type="curve" smooth="yes"/>
      <point x="485" y="491"/>
      <point x="499" y="470"/>
      <point x="487" y="429" type="curve" smooth="yes"/>
      <point x="372" y="19" type="line" smooth="yes"/>
      <point x="343" y="-98"/>
      <point x="284" y="-169"/>
      <point x="200" y="-173" type="curve"/>
    </contour>
    <component base="uni0307" xOffset="76" yOffset="-5"/>
    <component base="uni0307" xOffset="406" yOffset="-5"/>
  </outline>
</glyph>
<glyph name="Uhorn" format="1">
  <advance width="682"/>
  <unicode hex="01AF"/>
  <outline>
    <contour>
      <point x="266" y="-14" type="curve" smooth="yes"/>
      <point x="358" y="-14"/>
      <point x="429" y="23"/>
      <point x="477" y="79" type="curve" smooth="yes"/>
      <point x="519" y="128"/>
      <point x="551" y="198"/>
      <point x="575" y="291" type="curve" smooth="yes"/>
      <point x="680" y="696" type="line"/>
      <point x="670" y="686" type="line"/>
      <point x="701" y="687"/>
      <point x="733" y="696"/>
      <point x="773" y="720" type="curve" smooth="yes"/>
      <point x="810" y="742"/>
      <point x="838" y="773"/>
      <point x="838" y="808" type="curve" smooth="yes"/>
      <point x="838" y="838"/>
      <point x="819" y="864"/>
      <point x="782" y="864" type="curve" smooth="yes"/>
      <point x="743" y="864"/>
      <point x="724" y="835"/>
      <point x="724" y="804" type="curve" smooth="yes"/>
      <point x="724" y="774"/>
      <point x="745" y="749"/>
      <point x="765" y="734" type="curve"/>
      <point x="766" y="739" type="line"/>
      <point x="723" y="705"/>
      <point x="679" y="705"/>
      <point x="643" y="705" type="curve" smooth="yes"/>
      <point x="617" y="705"/>
      <point x="588" y="706"/>
      <point x="569" y="708" type="curve"/>
      <point x="564" y="688" type="line"/>
      <point x="596" y="685"/>
      <point x="629" y="684"/>
      <point x="661" y="686" type="curve"/>
      <point x="657" y="697" type="line"/>
      <point x="549" y="280" type="line" smooth="yes"/>
      <point x="510" y="131"/>
      <point x="438" y="21"/>
      <point x="294" y="21" type="curve" smooth="yes"/>
      <point x="161" y="21"/>
      <point x="154" y="116"/>
      <point x="195" y="271" type="curve" smooth="yes"/>
      <point x="283" y="602" type="line" smooth="yes"/>
      <point x="302" y="675"/>
      <point x="317" y="685"/>
      <point x="386" y="688" type="curve"/>
      <point x="392" y="708" type="line"/>
      <point x="360" y="706"/>
      <point x="314" y="705"/>
      <point x="265" y="705" type="curve" smooth="yes"/>
      <point x="216" y="705"/>
      <point x="165" y="706"/>
      <point x="138" y="708" type="curve"/>
      <point x="132" y="688" type="line"/>
      <point x="200" y="685"/>
      <point x="209" y="671"/>
      <point x="191" y="602" type="curve" smooth="yes"/>
      <point x="108" y="288" type="line" smooth="yes"/>
      <point x="80" y="183"/>
      <point x="66" y="98"/>
      <point x="118" y="40" type="curve" smooth="yes"/>
      <point x="155" y="-1"/>
      <point x="212" y="-14"/>
    </contour>
    <contour>
      <point x="282" y="0" type="move" name="bottom"/>
    </contour>
    <contour>
      <point x="356" y="0" type="move" name="ogonek"/>
    </contour>
    <contour>
      <point x="473" y="708" type="move" name="top"/>
    </contour>
  </outline>
</glyph>
<glyph name="uni01B7" format="1">
  <advance width="594"/>
  <unicode hex="01B7"/>
  <outline>
    <contour>
      <point x="640" y="708" type="line"/>
      <point x="566" y="705"/>
      <point x="472" y="705"/>
      <point x="396" y="705" type="curve" smooth="yes"/>
      <point x="323" y="705"/>
      <point x="221" y="705"/>
      <point x="148" y="708" type="curve"/>
      <point x="137" y="641"/>
      <point x="121" y="561"/>
      <point x="100" y="498" type="curve"/>
      <point x="123" y="498" type="line"/>
      <point x="171" y="637"/>
      <point x="208" y="685"/>
      <point x="333" y="685" type="curve" smooth="yes"/>
      <point x="543" y="685" type="line"/>
      <point x="302" y="410" type="line"/>
      <point x="297" y="390" type="line"/>
      <point x="379" y="364"/>
      <point x="424" y="313"/>
      <point x="424" y="218" type="curve" smooth="yes"/>
      <point x="424" y="108"/>
      <point x="339" y="6"/>
      <point x="218" y="6" type="curve" smooth="yes"/>
      <point x="83" y="6"/>
      <point x="26" y="95"/>
      <point x="53" y="233" type="curve"/>
      <point x="30" y="233" type="line"/>
      <point x="-1" y="92"/>
      <point x="-19" y="34"/>
      <point x="-34" y="-7" type="curve"/>
      <point x="-11" y="-7" type="line"/>
      <point x="0" y="21"/>
      <point x="8" y="37"/>
      <point x="23" y="37" type="curve" smooth="yes"/>
      <point x="33" y="37"/>
      <point x="42" y="30"/>
      <point x="52" y="23" type="curve" smooth="yes"/>
      <point x="76" y="9"/>
      <point x="136" y="-14"/>
      <point x="222" y="-14" type="curve" smooth="yes"/>
      <point x="391" y="-14"/>
      <point x="517" y="83"/>
      <point x="517" y="217" type="curve" smooth="yes"/>
      <point x="517" y="309"/>
      <point x="457" y="360"/>
      <point x="371" y="394" type="curve"/>
      <point x="360" y="373" type="line"/>
      <point x="635" y="688" type="line"/>
    </contour>
    <contour>
      <point x="240" y="0" type="move" name="bottom"/>
    </contour>
    <contour>
      <point x="385" y="708" type="move" name="top"/>
    </contour>
  </outline>
</glyph>
<glyph name="uni0259" format="1">
  <advance width="473"/>
  <unicode hex="0259"/>
  <outline>
    <contour>
      <point x="319" y="205" type="curve"/>
      <point x="326" y="225" type="line"/>
      <point x="302" y="280"/>
      <point x="261" y="297"/>
      <point x="215" y="297" type="curve" smooth="yes"/>
      <point x="106" y="297"/>
      <point x="16" y="204"/>
      <point x="16" y="98" type="curve" smooth="yes"/>
      <point x="16" y="24"/>
      <point x="59" y="-14"/>
      <point x="130" y="-14" type="curve" smooth="yes"/>
      <point x="285" y="-14"/>
      <point x="430" y="169"/>
      <point x="430" y="359" type="curve" smooth="yes"/>
      <point x="430" y="467"/>
      <point x="383" y="528"/>
      <point x="301" y="528" type="curve" smooth="yes"/>
      <point x="225" y="528"/>
      <point x="145" y="475"/>
      <point x="97" y="394" type="curve"/>
      <point x="113" y="386" type="line"/>
      <point x="157" y="450"/>
      <point x="211" y="486"/>
      <point x="265" y="486" type="curve" smooth="yes"/>
      <point x="316" y="486"/>
      <point x="336" y="454"/>
      <point x="336" y="375" type="curve" smooth="yes"/>
      <point x="336" y="201"/>
      <point x="239" y="5"/>
      <point x="150" y="5" type="curve" smooth="yes"/>
      <point x="116" y="5"/>
      <point x="96" y="34"/>
      <point x="96" y="96" type="curve" smooth="yes"/>
      <point x="96" y="198"/>
      <point x="149" y="281"/>
      <point x="224" y="281" type="curve" smooth="yes"/>
      <point x="264" y="281"/>
      <point x="298" y="257"/>
    </contour>
    <contour>
      <point x="145" y="0" type="move" name="bottom"/>
    </contour>
    <contour>
      <point x="294" y="514" type="move" name="top"/>
    </contour>
  </outline>
</glyph>
<glyph name="uni0292" format="1">
  <advance width="456"/>
  <unicode hex="0292"/>
  <outline>
    <contour>
      <point x="81" y="-191" type="curve" smooth="yes"/>
      <point x="223" y="-191"/>
      <point x="372" y="-97"/>
      <point x="372" y="44" type="curve" smooth="yes"/>
      <point x="372" y="149"/>
      <point x="289" y="195"/>
      <point x="193" y="209" type="curve"/>
      <point x="194" y="206" type="line"/>
      <point x="486" y="514" type="line"/>
      <point x="459" y="514" type="line"/>
      <point x="431" y="485"/>
      <point x="404" y="477"/>
      <point x="370" y="477" type="curve" smooth="yes"/>
      <point x="291" y="477"/>
      <point x="269" y="520"/>
      <point x="195" y="520" type="curve" smooth="yes"/>
      <point x="114" y="520"/>
      <point x="81" y="468"/>
      <point x="81" y="417" type="curve" smooth="yes"/>
      <point x="81" y="365"/>
      <point x="114" y="333"/>
      <point x="178" y="318" type="curve"/>
      <point x="184" y="333" type="line"/>
      <point x="139" y="342"/>
      <point x="105" y="367"/>
      <point x="105" y="407" type="curve" smooth="yes"/>
      <point x="105" y="438"/>
      <point x="125" y="455"/>
      <point x="161" y="455" type="curve" smooth="yes"/>
      <point x="210" y="455"/>
      <point x="246" y="423"/>
      <point x="296" y="423" type="curve" smooth="yes"/>
      <point x="332" y="423"/>
      <point x="365" y="439"/>
      <point x="422" y="475" type="curve"/>
      <point x="167" y="206" type="line"/>
      <point x="175" y="211" type="line"/>
      <point x="145" y="210"/>
      <point x="112" y="197"/>
      <point x="112" y="178" type="curve" smooth="yes"/>
      <point x="112" y="167"/>
      <point x="123" y="163"/>
      <point x="132" y="163" type="curve" smooth="yes"/>
      <point x="148" y="163"/>
      <point x="169" y="175"/>
      <point x="186" y="196" type="curve"/>
      <point x="242" y="179"/>
      <point x="276" y="129"/>
      <point x="276" y="46" type="curve" smooth="yes"/>
      <point x="276" y="-87"/>
      <point x="189" y="-171"/>
      <point x="82" y="-171" type="curve" smooth="yes"/>
      <point x="45" y="-171"/>
      <point x="21" y="-161"/>
      <point x="17" y="-148" type="curve"/>
      <point x="52" y="-139"/>
      <point x="74" y="-111"/>
      <point x="74" y="-82" type="curve" smooth="yes"/>
      <point x="74" y="-56"/>
      <point x="57" y="-43"/>
      <point x="33" y="-43" type="curve" smooth="yes"/>
      <point x="-5" y="-43"/>
      <point x="-36" y="-76"/>
      <point x="-36" y="-112" type="curve" smooth="yes"/>
      <point x="-36" y="-131"/>
      <point x="-27" y="-152"/>
      <point x="-7" y="-168" type="curve" smooth="yes"/>
      <point x="6" y="-178"/>
      <point x="28" y="-191"/>
    </contour>
    <contour>
      <point x="280" y="514" type="move" name="top"/>
    </contour>
  </outline>
</glyph>
<glyph name="uni0302" format="1">
  <advance width="392"/>
  <unicode hex="0302"/>
  <outline>
    <contour>
      <point x="293" y="720" type="curve"/>
      <point x="334" y="675"/>
      <point x="378" y="639"/>
      <point x="461" y="616" type="curve"/>
      <point x="465" y="630" type="line"/>
      <point x="392" y="669"/>
      <point x="360" y="720"/>
      <point x="346" y="802" type="curve"/>
      <point x="328" y="802" type="line"/>
      <point x="281" y="735"/>
      <point x="202" y="668"/>
      <point x="113" y="630" type="curve"/>
      <point x="118" y="616" type="line"/>
      <point x="182" y="642"/>
      <point x="247" y="684"/>
    </contour>
    <contour>
      <point x="281" y="514" type="move" name="_top"/>
    </contour>
    <contour>
      <point x="410" y="728" type="move" name="right"/>
    </contour>
    <contour>
      <point x="342" y="758" type="move" name="top"/>
    </contour>
  </outline>
</glyph>
<glyph name="hookabovecomb" format="1">
  <advance width="303"/>
  <unicode hex="0309"/>
  <outline>
    <contour>
      <point x="235" y="592" type="curve"/>
      <point x="255" y="592" type="line"/>
      <point x="265" y="681"/>
      <point x="388" y="676"/>
      <point x="388" y="751" type="curve" smooth="yes"/>
      <point x="388" y="799"/>
      <point x="339" y="816"/>
      <point x="283" y="816" type="curve" smooth="yes"/>
      <point x="245" y="816"/>
      <point x="221" y="808"/>
      <point x="206" y="801" type="curve" smooth="yes"/>
      <point x="177" y="788"/>
      <point x="153" y="767"/>
      <point x="153" y="739" type="curve" smooth="yes"/>
      <point x="153" y="715"/>
      <point x="170" y="699"/>
      <point x="195" y="699" type="curve" smooth="yes"/>
      <point x="224" y="699"/>
      <point x="244" y="720"/>
      <point x="244" y="745" type="curve" smooth="yes"/>
      <point x="244" y="763"/>
      <point x="234" y="777"/>
      <point x="220" y="784" type="curve"/>
      <point x="232" y="797"/>
      <point x="249" y="800"/>
      <point x="264" y="800" type="curve" smooth="yes"/>
      <point x="299" y="800"/>
      <point x="319" y="784"/>
      <point x="319" y="748" type="curve" smooth="yes"/>
      <point x="319" y="679"/>
      <point x="244" y="675"/>
    </contour>
    <contour>
      <point x="216" y="514" type="move" name="_right"/>
    </contour>
    <contour>
      <point x="226" y="514" type="move" name="_top"/>
    </contour>
    <contour>
      <point x="283" y="816" type="move" name="top"/>
    </contour>
  </outline>
</glyph>
<glyph name="uni030B" format="1">
  <advance width="358"/>
  <unicode hex="030B"/>
  <outline>
    <contour>
      <point x="108" y="608" type="curve"/>
      <point x="119" y="599" type="line"/>
      <point x="198" y="683"/>
      <point x="246" y="712"/>
      <point x="277" y="751" type="curve" smooth="yes"/>
      <point x="297" y="777"/>
      <point x="293" y="800"/>
      <point x="277" y="813" type="curve" smooth="yes"/>
      <point x="261" y="825"/>
      <point x="237" y="824"/>
      <point x="217" y="798" type="curve" smooth="yes"/>
      <point x="187" y="759"/>
      <point x="170" y="705"/>
    </contour>
    <contour>
      <point x="286" y="608" type="curve"/>
      <point x="297" y="599" type="line"/>
      <point x="376" y="683"/>
      <point x="424" y="712"/>
      <point x="455" y="751" type="curve" smooth="yes"/>
      <point x="475" y="777"/>
      <point x="471" y="800"/>
      <point x="455" y="813" type="curve" smooth="yes"/>
      <point x="439" y="825"/>
      <point x="415" y="824"/>
      <point x="395" y="798" type="curve" smooth="yes"/>
      <point x="365" y="759"/>
      <point x="348" y="705"/>
    </contour>
    <contour>
      <point x="217" y="514" type="move" name="_top"/>
    </contour>
    <contour>
      <point x="279" y="758" type="move" name="top"/>
    </contour>
  </outline>
</glyph>
<glyph name="uni030C" format="1">
  <advance width="392"/>
  <unicode hex="030C"/>
  <outline>
    <contour>
      <point x="324" y="698" type="curve"/>
      <point x="283" y="743"/>
      <point x="239" y="779"/>
      <point x="156" y="802" type="curve"/>
      <point x="152" y="788" type="line"/>
      <point x="225" y="749"/>
      <point x="257" y="698"/>
      <point x="271" y="616" type="curve"/>
      <point x="289" y="616" type="line"/>
      <point x="336" y="683"/>
      <point x="415" y="750"/>
      <point x="504" y="788" type="curve"/>
      <point x="499" y="802" type="line"/>
      <point x="435" y="776"/>
      <point x="370" y="734"/>
    </contour>
    <contour>
      <point x="266" y="514" type="move" name="_top"/>
    </contour>
    <contour>
      <point x="327" y="758" type="move" name="top"/>
    </contour>
  </outline>
</glyph>
<glyph name="uni0326" format="1">
  <advance width="164"/>
  <unicode hex="0326"/>
  <outline>
    <contour>
      <point x="-11" y="-69" type="curve" smooth="yes"/>
      <point x="-53" y="-69"/>
      <point x="-76" y="-105"/>
      <point x="-76" y="-134" type="curve" smooth="yes"/>
      <point x="-76" y="-161"/>
      <point x="-57" y="-176"/>
      <point x="-31" y="-176" type="curve" smooth="yes"/>
      <point x="-14" y="-176"/>
      <point x="3" y="-169"/>
      <point x="13" y="-160" type="curve"/>
      <point x="10" y="-192"/>
      <point x="-30" y="-215"/>
      <point x="-61" y="-224" type="curve"/>
      <point x="-54" y="-241" type="line"/>
      <point x="28" y="-213"/>
      <point x="44" y="-170"/>
      <point x="44" y="-127" type="curve" smooth="yes"/>
      <point x="44" y="-94"/>
      <point x="24" y="-69"/>
    </contour>
    <contour>
      <point x="6" y="0" type="move" name="_bottom"/>
    </contour>
  </outline>
</glyph>
<glyph name="uni0327" format="1">
  <advance width="230"/>
  <unicode hex="0327"/>
  <outline>
    <contour>
      <point x="68" y="0" type="line"/>
      <point x="41" y="0" type="line"/>
      <point x="-5" y="-96" type="line"/>
      <point x="6" y="-91"/>
      <point x="19" y="-89"/>
      <point x="26" y="-89" type="curve" smooth="yes"/>
      <point x="45" y="-89"/>
      <point x="54" y="-97"/>
      <point x="54" y="-113" type="curve" smooth="yes"/>
      <point x="54" y="-153"/>
      <point x="3" y="-164"/>
      <point x="-18" y="-164" type="curve" smooth="yes"/>
      <point x="-51" y="-164"/>
      <point x="-69" y="-155"/>
      <point x="-78" y="-151" type="curve"/>
      <point x="-85" y="-166" type="line"/>
      <point x="-72" y="-177"/>
      <point x="-42" y="-188"/>
      <point x="-5" y="-188" type="curve" smooth="yes"/>
      <point x="47" y="-188"/>
      <point x="118" y="-163"/>
      <point x="118" y="-105" type="curve" smooth="yes"/>
      <point x="118" y="-80"/>
      <point x="102" y="-65"/>
      <point x="75" y="-65" type="curve" smooth="yes"/>
      <point x="61" y="-65"/>
      <point x="45" y="-68"/>
      <point x="34" y="-72" type="curve"/>
    </contour>
    <contour>
      <point x="54" y="0" type="move" name="_bottom"/>
    </contour>
  </outline>
</glyph>
<glyph name="uni0335" format="1">
  <advance width="385"/>
  <unicode hex="0335"/>
  <outline>
    <contour>
      <point x="458" y="628" type="line"/>
      <point x="114" y="628" type="line"/>
      <point x="108" y="608" type="line"/>
      <point x="452" y="608" type="line"/>
    </contour>
    <contour>
      <point x="283" y="608" type="move" name="_center"/>
    </contour>
  </outline>
</glyph>
<glyph name="uni0492" format="1">
  <advance width="532"/>
  <unicode hex="0492"/>
  <outline>
    <contour>
      <point x="12" y="305" type="line"/>
      <point x="347" y="305" type="line"/>
      <point x="351" y="325" type="line"/>
      <point x="16" y="325" type="line"/>
    </contour>
    <component base="uni0413"/>
  </outline>
</glyph>
<glyph name="uni0497" format="1">
  <advance width="958"/>
  <unicode hex="0497"/>
  <outline>
    <contour>
      <point x="575" y="-78" type="curve"/>
      <point x="627" y="-79"/>
      <point x="642" y="-171"/>
      <point x="708" y="-171" type="curve" smooth="yes"/>
      <point x="776" y="-171"/>
      <point x="808" y="-81"/>
      <point x="875" y="120" type="curve"/>
      <point x="857" y="111" type="line"/>
      <point x="805" y="-23"/>
      <point x="790" y="-110"/>
      <point x="732" y="-110" type="curve" smooth="yes"/>
      <point x="674" y="-110"/>
      <point x="641" y="-65"/>
      <point x="575" y="-65" type="curve" smooth="yes"/>
      <point x="530" y="-65"/>
      <point x="496" y="-97"/>
      <point x="496" y="-130" type="curve" smooth="yes"/>
      <point x="496" y="-156"/>
      <point x="511" y="-166"/>
      <point x="529" y="-166" type="curve" smooth="yes"/>
      <point x="555" y="-166"/>
      <point x="583" y="-147"/>
      <point x="583" y="-112" type="curve" smooth="yes"/>
      <point x="583" y="-99"/>
      <point x="578" y="-86"/>
    </contour>
    <component base="uni0436"/>
  </outline>
</glyph>
<glyph name="uni049A" format="1">
  <advance width="675"/>
  <unicode hex="049A"/>
  <outline>
    <contour>
      <point x="444" y="2" type="curve" smooth="yes"/>
      <point x="499" y="-17"/>
      <point x="508" y="-51"/>
      <point x="492" y="-190" type="curve"/>
      <point x="514" y="-190" type="line"/>
      <point x="517" y="-174"/>
      <point x="521" y="-152"/>
      <point x="527" y="-128" type="curve" smooth="yes"/>
      <point x="538" y="-83"/>
      <point x="553" y="-27"/>
      <point x="571" y="20" type="curve"/>
      <point x="540" y="20" type="line" smooth="yes"/>
      <point x="491" y="20"/>
      <point x="467" y="27"/>
      <point x="468" y="69" type="curve" smooth="yes"/>
      <point x="473" y="205" type="line" smooth="yes"/>
      <point x="478" y="353"/>
      <point x="421" y="359"/>
      <point x="343" y="375" type="curve"/>
      <point x="341" y="365" type="line"/>
      <point x="374" y="340"/>
      <point x="391" y="318"/>
      <point x="385" y="215" type="curve" smooth="yes"/>
      <point x="378" y="102" type="line" smooth="yes"/>
      <point x="373" y="27"/>
      <point x="401" y="17"/>
    </contour>
    <contour>
      <point x="166" y="106" type="curve" smooth="yes"/>
      <point x="298" y="602" type="line" smooth="yes"/>
      <point x="317" y="675"/>
      <point x="332" y="685"/>
      <point x="401" y="688" type="curve"/>
      <point x="406" y="708" type="line"/>
      <point x="374" y="706"/>
      <point x="324" y="705"/>
      <point x="278" y="705" type="curve" smooth="yes"/>
      <point x="226" y="705"/>
      <point x="178" y="706"/>
      <point x="151" y="708" type="curve"/>
      <point x="146" y="688" type="line"/>
      <point x="213" y="685"/>
      <point x="224" y="675"/>
      <point x="205" y="602" type="curve" smooth="yes"/>
      <point x="73" y="106" type="line" smooth="yes"/>
      <point x="54" y="33"/>
      <point x="38" y="23"/>
      <point x="-28" y="20" type="curve"/>
      <point x="-33" y="0" type="line"/>
      <point x="-4" y="2"/>
      <point x="42" y="3"/>
      <point x="94" y="3" type="curve" smooth="yes"/>
      <point x="140" y="3"/>
      <point x="190" y="2"/>
      <point x="221" y="0" type="curve"/>
      <point x="225" y="20" type="line"/>
      <point x="157" y="23"/>
      <point x="147" y="33"/>
    </contour>
    <contour>
      <point x="355" y="360" type="curve"/>
      <point x="355" y="378" type="line"/>
      <point x="281" y="398"/>
      <point x="261" y="388"/>
      <point x="261" y="369" type="curve" smooth="yes"/>
      <point x="261" y="350"/>
      <point x="281" y="340"/>
    </contour>
    <contour>
      <point x="603" y="687" type="curve" smooth="yes"/>
      <point x="613" y="695"/>
      <point x="622" y="700"/>
      <point x="639" y="701" type="curve" smooth="yes"/>
      <point x="640" y="701"/>
      <point x="641" y="701"/>
      <point x="642" y="701" type="curve"/>
      <point x="625" y="685"/>
      <point x="611" y="661"/>
      <point x="610" y="642" type="curve" smooth="yes"/>
      <point x="609" y="621"/>
      <point x="619" y="599"/>
      <point x="649" y="599" type="curve" smooth="yes"/>
      <point x="689" y="599"/>
      <point x="705" y="639"/>
      <point x="707" y="663" type="curve" smooth="yes"/>
      <point x="709" y="695"/>
      <point x="694" y="722"/>
      <point x="648" y="722" type="curve" smooth="yes"/>
      <point x="630" y="722"/>
      <point x="611" y="717"/>
      <point x="588" y="699" type="curve" smooth="yes"/>
      <point x="506" y="630"/>
      <point x="526" y="393"/>
      <point x="344" y="378" type="curve"/>
      <point x="342" y="368" type="line"/>
      <point x="539" y="365"/>
      <point x="527" y="618"/>
    </contour>
    <contour>
      <point x="262" y="0" type="move" name="bottom"/>
    </contour>
    <contour>
      <point x="450" y="708" type="move" name="top"/>
    </contour>
  </outline>
</glyph>
<glyph name="uni049B" format="1">
  <advance width="561"/>
  <unicode hex="049B"/>
  <outline>
    <contour>
      <point x="180" y="-78" type="curve"/>
      <point x="232" y="-79"/>
      <point x="247" y="-171"/>
      <point x="313" y="-171" type="curve" smooth="yes"/>
      <point x="381" y="-171"/>
      <point x="413" y="-81"/>
      <point x="474" y="102" type="curve"/>
      <point x="462" y="111" type="line"/>
      <point x="410" y="-23"/>
      <point x="395" y="-110"/>
      <point x="337" y="-110" type="curve" smooth="yes"/>
      <point x="279" y="-110"/>
      <point x="246" y="-65"/>
      <point x="180" y="-65" type="curve" smooth="yes"/>
      <point x="135" y="-65"/>
      <point x="101" y="-97"/>
      <point x="101" y="-130" type="curve" smooth="yes"/>
      <point x="101" y="-156"/>
      <point x="116" y="-166"/>
      <point x="134" y="-166" type="curve" smooth="yes"/>
      <point x="160" y="-166"/>
      <point x="188" y="-147"/>
      <point x="188" y="-112" type="curve" smooth="yes"/>
      <point x="188" y="-99"/>
      <point x="183" y="-86"/>
    </contour>
    <component base="uni043A"/>
  </outline>
</glyph>
<glyph name="uni04B1" format="1">
  <advance width="600"/>
  <unicode hex="04B1"/>
  <outline>
    <contour>
      <point x="403" y="39" type="line"/>
      <point x="60" y="39" type="line"/>
      <point x="56" y="19" type="line"/>
      <point x="399" y="19" type="line"/>
    </contour>
    <component base="uni04AF"/>
  </outline>
</glyph>
<glyph name="uni04E8" format="1">
  <advance width="729"/>
  <unicode hex="04E8"/>
  <outline>
    <contour>
      <point x="106" y="346" type="line"/>
      <point x="641" y="346" type="line"/>
      <point x="641" y="366" type="line"/>
      <point x="106" y="366" type="line"/>
    </contour>
    <component base="uni041E"/>
  </outline>
</glyph>
<glyph name="minute" format="1">
  <advance width="310"/>
  <unicode hex="2032"/>
  <outline>
    <contour>
      <point x="70" y="413" type="line"/>
      <point x="278" y="708" type="line"/>
      <point x="399" y="708" type="line"/>
      <point x="83" y="402" type="line"/>
    </contour>
  </outline>
</glyph>
<glyph name="f_f_j.liga" format="1">
  <advance width="858"/>
  <outline>
    <contour>
      <point x="67" y="494" type="line"/>
      <point x="362" y="494" type="line"/>
      <point x="368" y="514" type="line"/>
      <point x="73" y="514" type="line"/>
    </contour>
    <contour>
      <point x="60" y="-174" type="curve"/>
      <point x="251" y="515" type="line" smooth="yes"/>
      <point x="284" y="635"/>
      <point x="321" y="724"/>
      <point x="434" y="724" type="curve" smooth="yes"/>
      <point x="488" y="724"/>
      <point x="530" y="698"/>
      <point x="552" y="658" type="curve"/>
      <point x="565" y="676" type="line"/>
      <point x="543" y="708"/>
      <point x="504" y="742"/>
      <point x="432" y="742" type="curve" smooth="yes"/>
      <point x="368" y="742"/>
      <point x="305" y="724"/>
      <point x="253" y="674" type="curve" smooth="yes"/>
      <point x="213" y="636"/>
      <point x="178" y="567"/>
      <point x="160" y="499" type="curve" smooth="yes"/>
      <point x="-30" y="-188" type="line"/>
      <point x="-4" y="-179"/>
      <point x="28" y="-175"/>
    </contour>
    <component base="f_j.liga" xOffset="288"/>
  </outline>
</glyph>
<glyph name="longs_h.liga" format="1">
  <advance width="857"/>
  <outline>
    <contour>
      <point x="67" y="494" type="line"/>
      <point x="217" y="494" type="line"/>
      <point x="223" y="514" type="line"/>
      <point x="73" y="514" type="line"/>
    </contour>
    <contour>
      <point x="427" y="148" type="curve"/>
      <point x="404" y="20" type="line"/>
      <point x="480" y="299"/>
      <point x="595" y="496"/>
      <point x="680" y="496" type="curve" smooth="yes"/>
      <point x="727" y="496"/>
      <point x="712" y="442"/>
      <point x="702" y="412" type="curve" smooth="yes"/>
      <point x="607" y="126" type="line" smooth="yes"/>
      <point x="580" y="45"/>
      <point x="580" y="-14"/>
      <point x="661" y="-14" type="curve" smooth="yes"/>
      <point x="702" y="-14"/>
      <point x="753" y="5"/>
      <point x="782" y="89" type="curve" smooth="yes"/>
      <point x="807" y="162" type="line"/>
      <point x="788" y="162" type="line"/>
      <point x="775" y="125" type="line" smooth="yes"/>
      <point x="747" y="45"/>
      <point x="723" y="23"/>
      <point x="698" y="23" type="curve" smooth="yes"/>
      <point x="668" y="23"/>
      <point x="671" y="50"/>
      <point x="682" y="85" type="curve" smooth="yes"/>
      <point x="779" y="377" type="line" smooth="yes"/>
      <point x="803" y="449"/>
      <point x="807" y="528"/>
      <point x="713" y="528" type="curve" smooth="yes"/>
      <point x="608" y="528"/>
      <point x="527" y="429"/>
    </contour>
    <contour>
      <point x="399" y="0" type="line"/>
      <point x="622" y="795" type="line"/>
      <point x="572" y="769"/>
      <point x="511" y="755"/>
      <point x="438" y="754" type="curve"/>
      <point x="436" y="739" type="line"/>
      <point x="501" y="739"/>
      <point x="513" y="712"/>
      <point x="500" y="667" type="curve" smooth="yes"/>
      <point x="312" y="0" type="line"/>
    </contour>
    <contour>
      <point x="436" y="739" type="curve"/>
      <point x="438" y="754" type="line"/>
      <point x="290" y="754"/>
      <point x="206" y="666"/>
      <point x="167" y="525" type="curve" smooth="yes"/>
      <point x="-30" y="-188" type="line"/>
      <point x="-4" y="-179"/>
      <point x="28" y="-175"/>
      <point x="60" y="-174" type="curve"/>
      <point x="269" y="578" type="line" smooth="yes"/>
      <point x="304" y="702"/>
      <point x="366" y="739"/>
    </contour>
  </outline>
</glyph>
<glyph name="ohorn.smcp" format="1">
  <advance width="732"/>
  <outline>
    <contour>
      <point x="536" y="584" type="line"/>
      <point x="635" y="575"/>
      <point x="707" y="590"/>
      <point x="758" y="620" type="curve" smooth="yes"/>
      <point x="797" y="643"/>
      <point x="823" y="675"/>
      <point x="823" y="709" type="curve" smooth="yes"/>
      <point x="823" y="738"/>
      <point x="804" y="764"/>
      <point x="767" y="764" type="curve" smooth="yes"/>
      <point x="728" y="764"/>
      <point x="709" y="735"/>
      <point x="709" y="705" type="curve" smooth="yes"/>
      <point x="709" y="674"/>
      <point x="729" y="650"/>
      <point x="750" y="634" type="curve"/>
      <point x="751" y="641" type="line"/>
      <point x="702" y="608"/>
      <point x="643" y="596"/>
      <point x="528" y="607" type="curve"/>
    </contour>
    <component base="o.smcp"/>
  </outline>
</glyph>
<glyph name="tildecomb.case" format="1">
  <advance width="410"/>
  <outline>
    <contour>
      <point x="283" y="895" type="curve" smooth="yes"/>
      <point x="236" y="895"/>
      <point x="184" y="866"/>
      <point x="153" y="792" type="curve"/>
      <point x="171" y="787" type="line"/>
      <point x="194" y="829"/>
      <point x="217" y="845"/>
      <point x="241" y="845" type="curve" smooth="yes"/>
      <point x="310" y="845"/>
      <point x="323" y="772"/>
      <point x="414" y="772" type="curve" smooth="yes"/>
      <point x="461" y="772"/>
      <point x="513" y="801"/>
      <point x="544" y="875" type="curve"/>
      <point x="526" y="880" type="line"/>
      <point x="503" y="838"/>
      <point x="480" y="822"/>
      <point x="456" y="822" type="curve" smooth="yes"/>
      <point x="387" y="822"/>
      <point x="374" y="895"/>
    </contour>
    <contour>
      <point x="318" y="708" type="move" name="_top"/>
    </contour>
    <contour>
      <point x="373" y="928" type="move" name="top"/>
    </contour>
  </outline>
</glyph>
<glyph name="uni0306.case" format="1">
  <advance width="440"/>
  <outline>
    <contour>
      <point x="348" y="849" type="curve" smooth="yes"/>
      <point x="275" y="849"/>
      <point x="231" y="862"/>
      <point x="196" y="903" type="curve"/>
      <point x="180" y="898" type="line"/>
      <point x="194" y="834"/>
      <point x="245" y="782"/>
      <point x="331" y="782" type="curve" smooth="yes"/>
      <point x="415" y="782"/>
      <point x="527" y="844"/>
      <point x="579" y="896" type="curve"/>
      <point x="569" y="907" type="line"/>
      <point x="505" y="869"/>
      <point x="417" y="849"/>
    </contour>
    <contour>
      <point x="323" y="708" type="move" name="_top"/>
    </contour>
    <contour>
      <point x="358" y="849" type="move" name="top"/>
    </contour>
  </outline>
</glyph>
<glyph name="uni0308.smcp" format="1">
  <advance width="369"/>
  <outline>
    <contour>
      <point x="138" y="723" type="curve" smooth="yes"/>
      <point x="138" y="694"/>
      <point x="158" y="672"/>
      <point x="188" y="672" type="curve" smooth="yes"/>
      <point x="224" y="672"/>
      <point x="255" y="705"/>
      <point x="255" y="738" type="curve" smooth="yes"/>
      <point x="255" y="766"/>
      <point x="233" y="788"/>
      <point x="205" y="788" type="curve" smooth="yes"/>
      <point x="169" y="788"/>
      <point x="138" y="754"/>
    </contour>
    <contour>
      <point x="350" y="723" type="curve" smooth="yes"/>
      <point x="350" y="694"/>
      <point x="370" y="672"/>
      <point x="400" y="672" type="curve" smooth="yes"/>
      <point x="436" y="672"/>
      <point x="467" y="705"/>
      <point x="467" y="738" type="curve" smooth="yes"/>
      <point x="467" y="766"/>
      <point x="445" y="788"/>
      <point x="417" y="788" type="curve" smooth="yes"/>
      <point x="381" y="788"/>
      <point x="350" y="754"/>
    </contour>
    <contour>
      <point x="286" y="608" type="move" name="_top"/>
    </contour>
    <contour>
      <point x="341" y="828" type="move" name="top"/>
    </contour>
  </outline>
</glyph>
<glyph name="uni030A.case" format="1">
  <advance width="235"/>
  <outline>
    <contour>
      <point x="273" y="925" type="curve" smooth="yes"/>
      <point x="213" y="925"/>
      <point x="164" y="880"/>
      <point x="164" y="822" type="curve" smooth="yes"/>
      <point x="164" y="772"/>
      <point x="200" y="742"/>
      <point x="247" y="742" type="curve" smooth="yes"/>
      <point x="306" y="742"/>
      <point x="359" y="789"/>
      <point x="359" y="845" type="curve" smooth="yes"/>
      <point x="359" y="894"/>
      <point x="321" y="925"/>
    </contour>
    <contour>
      <point x="251" y="763" type="curve" smooth="yes"/>
      <point x="221" y="763"/>
      <point x="190" y="783"/>
      <point x="190" y="823" type="curve" smooth="yes"/>
      <point x="190" y="865"/>
      <point x="228" y="904"/>
      <point x="269" y="904" type="curve" smooth="yes"/>
      <point x="300" y="904"/>
      <point x="333" y="884"/>
      <point x="333" y="846" type="curve" smooth="yes"/>
      <point x="333" y="798"/>
      <point x="293" y="763"/>
    </contour>
    <contour>
      <point x="241" y="708" type="move" name="_top"/>
    </contour>
    <contour>
      <point x="296" y="928" type="move" name="top"/>
    </contour>
  </outline>
</glyph>
<glyph name="uni030B.case" format="1">
  <advance width="416"/>
  <outline>
    <contour>
      <point x="338" y="784" type="curve"/>
      <point x="344" y="772" type="line"/>
      <point x="410" y="811"/>
      <point x="478" y="830"/>
      <point x="525" y="863" type="curve" smooth="yes"/>
      <point x="546" y="878"/>
      <point x="568" y="903"/>
      <point x="553" y="924" type="curve" smooth="yes"/>
      <point x="537" y="946"/>
      <point x="507" y="933"/>
      <point x="492" y="922" type="curve" smooth="yes"/>
      <point x="445" y="889"/>
      <point x="399" y="832"/>
    </contour>
    <contour>
      <point x="151" y="784" type="curve"/>
      <point x="157" y="772" type="line"/>
      <point x="223" y="811"/>
      <point x="291" y="830"/>
      <point x="338" y="863" type="curve" smooth="yes"/>
      <point x="360" y="879"/>
      <point x="378" y="900"/>
      <point x="367" y="922" type="curve" smooth="yes"/>
      <point x="353" y="946"/>
      <point x="321" y="934"/>
      <point x="305" y="922" type="curve" smooth="yes"/>
      <point x="258" y="889"/>
      <point x="212" y="832"/>
    </contour>
    <contour>
      <point x="283" y="708" type="move" name="_top"/>
    </contour>
    <contour>
      <point x="338" y="928" type="move" name="top"/>
    </contour>
  </outline>
</glyph>
<glyph name="uni0335.case" format="1">
  <advance width="452"/>
  <outline>
    <contour>
      <point x="462" y="379" type="line"/>
      <point x="50" y="379" type="line"/>
      <point x="44" y="354" type="line"/>
      <point x="456" y="354" type="line"/>
    </contour>
    <contour>
      <point x="253" y="367" type="move" name="_center"/>
    </contour>
  </outline>
</glyph>
<glyph name="uni0335.smcp" format="1">
  <advance width="452"/>
  <outline>
    <contour>
      <point x="447" y="319" type="line"/>
      <point x="35" y="319" type="line"/>
      <point x="29" y="294" type="line"/>
      <point x="441" y="294" type="line"/>
    </contour>
    <contour>
      <point x="238" y="307" type="move" name="_center"/>
    </contour>
  </outline>
</glyph>
<glyph name="uni04A3.smcp" format="1">
  <advance width="758"/>
  <outline>
    <contour>
      <point x="592" y="-190" type="curve"/>
      <point x="614" y="-190" type="line"/>
      <point x="617" y="-174"/>
      <point x="621" y="-152"/>
      <point x="627" y="-128" type="curve" smooth="yes"/>
      <point x="638" y="-83"/>
      <point x="653" y="-27"/>
      <point x="671" y="20" type="curve"/>
      <point x="640" y="20" type="line" smooth="yes"/>
      <point x="573" y="20"/>
      <point x="561" y="33"/>
      <point x="579" y="106" type="curve"/>
      <point x="508" y="3" type="line"/>
      <point x="575" y="3"/>
      <point x="616" y="-44"/>
    </contour>
    <component base="uni043D.smcp"/>
  </outline>
</glyph>
<glyph name="uni04B1.smcp" format="1">
  <advance width="638"/>
  <outline>
    <contour>
      <point x="515" y="217" type="line"/>
      <point x="82" y="217" type="line"/>
      <point x="78" y="197" type="line"/>
      <point x="511" y="197" type="line"/>
    </contour>
    <component base="uni04AF.smcp"/>
  </outline>
</glyph>
